<?xml version="1.0" encoding="utf-8"?>
<!-- Generator: Adobe Illustrator 25.2.1, SVG Export Plug-In . SVG Version: 6.00 Build 0)  -->
<svg version="1.1" id="Capa_1" xmlns="http://www.w3.org/2000/svg" xmlns:xlink="http://www.w3.org/1999/xlink" x="0px" y="0px"
	 viewBox="0 0 512 512" style="enable-background:new 0 0 512 512;" xml:space="preserve">
<style type="text/css">
	.st0{fill:#E7CC86;}
</style>
<g>
	<g>
		<path class="st0" d="M512,481.9h-31v-152h-90v152h-30v-242h-90v242h-30v-182h-90v182h-30v-302H31v302H0v30h512V481.9z M421,359.9
			h30v122h-30V359.9z M301,269.9h30v212h-30V269.9z M181,329.9h30v152h-30V329.9z M61,209.9h30v272H61V209.9z"/>
		<path class="st0" d="M391,269.9h121v-120h-30v68.9L316,53.7l-120,120L21.2,0.1L0,21.4l196,194.7l120-120l144.6,143.8H391
			L391,269.9z"/>
	</g>
</g>
</svg>
